<?xml version="1.0" standalone="no"?>
<!DOCTYPE svg PUBLIC "-//W3C//DTD SVG 20010904//EN"
 "http://www.w3.org/TR/2001/REC-SVG-20010904/DTD/svg10.dtd">
<svg version="1.0" xmlns="http://www.w3.org/2000/svg"
 width="1024.000000pt" height="1024.000000pt" viewBox="0 0 1024.000000 1024.000000"
 preserveAspectRatio="xMidYMid meet">

<g transform="translate(0.000000,1024.000000) scale(0.100000,-0.100000)"
fill="#000000" stroke="none">
<path d="M4855 10074 c-1270 -81 -2417 -580 -3299 -1434 -849 -823 -1354
-1858 -1483 -3040 -24 -226 -24 -738 0 -960 64 -575 195 -1053 427 -1560 363
-793 978 -1517 1718 -2021 378 -258 834 -485 1258 -627 987 -332 2059 -359
3058 -78 1730 488 3085 1852 3520 3546 110 426 151 756 151 1220 0 556 -68
993 -232 1495 -375 1149 -1149 2110 -2208 2743 -641 383 -1349 614 -2135 697
-138 15 -644 27 -775 19z m-745 -2914 c349 -42 669 -176 930 -387 l85 -69 68
57 c213 179 496 315 780 375 151 32 417 43 577 24 191 -22 427 -93 600 -180
568 -287 950 -868 987 -1502 l6 -108 -595 0 -595 0 -7 65 c-14 140 -96 299
-203 394 -64 57 -172 114 -258 136 -75 19 -212 19 -293 0 -207 -49 -384 -223
-449 -443 -16 -52 -18 -160 -21 -1259 l-3 -1203 -589 0 -590 0 0 1143 c0 1308
1 1285 -81 1449 -69 137 -209 255 -362 304 -100 32 -236 36 -336 10 -162 -42
-324 -171 -394 -316 -76 -157 -71 -57 -75 -1392 l-3 -1198 -589 0 -590 0 0
1183 c0 724 4 1224 10 1289 66 693 506 1271 1160 1524 130 50 293 88 465 108
69 8 287 5 365 -4z"/>
</g>
</svg>
